<mxfile host="app.diagrams.net" modified="2023-04-26T09:33:35.940Z" agent="Mozilla/5.0 (Macintosh; Intel Mac OS X 10_15_7) AppleWebKit/605.1.15 (KHTML, like Gecko) Version/16.4 Safari/605.1.15" etag="QJOpb-VltLITNY91TA9u" version="21.2.2" type="device">
  <diagram name="Pagina-1" id="SwFdMuPyess3JVUYGwJ6">
    <mxGraphModel dx="911" dy="735" grid="1" gridSize="10" guides="1" tooltips="1" connect="1" arrows="1" fold="1" page="1" pageScale="1" pageWidth="827" pageHeight="1169" math="0" shadow="0">
      <root>
        <mxCell id="0" />
        <mxCell id="1" parent="0" />
        <mxCell id="hd37IQOqFg9SAO2HP4Vp-47" style="edgeStyle=orthogonalEdgeStyle;rounded=0;orthogonalLoop=1;jettySize=auto;html=1;entryX=0;entryY=0.5;entryDx=0;entryDy=0;endArrow=none;endFill=0;" parent="1" source="hd37IQOqFg9SAO2HP4Vp-1" target="hd37IQOqFg9SAO2HP4Vp-18" edge="1">
          <mxGeometry relative="1" as="geometry" />
        </mxCell>
        <mxCell id="hd37IQOqFg9SAO2HP4Vp-48" style="edgeStyle=orthogonalEdgeStyle;rounded=0;orthogonalLoop=1;jettySize=auto;html=1;entryX=0;entryY=0.5;entryDx=0;entryDy=0;endArrow=none;endFill=0;" parent="1" source="hd37IQOqFg9SAO2HP4Vp-1" target="hd37IQOqFg9SAO2HP4Vp-27" edge="1">
          <mxGeometry relative="1" as="geometry" />
        </mxCell>
        <mxCell id="hd37IQOqFg9SAO2HP4Vp-51" style="edgeStyle=orthogonalEdgeStyle;rounded=0;orthogonalLoop=1;jettySize=auto;html=1;entryX=0;entryY=0.5;entryDx=0;entryDy=0;endArrow=none;endFill=0;" parent="1" source="hd37IQOqFg9SAO2HP4Vp-1" target="hd37IQOqFg9SAO2HP4Vp-45" edge="1">
          <mxGeometry relative="1" as="geometry" />
        </mxCell>
        <mxCell id="nKxA4t5GcD8QH2U30N4E-10" style="edgeStyle=orthogonalEdgeStyle;rounded=0;orthogonalLoop=1;jettySize=auto;html=1;entryX=0;entryY=0.5;entryDx=0;entryDy=0;" parent="1" source="hd37IQOqFg9SAO2HP4Vp-1" target="nKxA4t5GcD8QH2U30N4E-9" edge="1">
          <mxGeometry relative="1" as="geometry" />
        </mxCell>
        <mxCell id="nKxA4t5GcD8QH2U30N4E-14" style="edgeStyle=orthogonalEdgeStyle;rounded=0;orthogonalLoop=1;jettySize=auto;html=1;entryX=0;entryY=0.5;entryDx=0;entryDy=0;endArrow=none;endFill=0;" parent="1" source="hd37IQOqFg9SAO2HP4Vp-1" target="nKxA4t5GcD8QH2U30N4E-11" edge="1">
          <mxGeometry relative="1" as="geometry" />
        </mxCell>
        <mxCell id="hd37IQOqFg9SAO2HP4Vp-1" value="User" style="shape=umlActor;verticalLabelPosition=bottom;verticalAlign=top;html=1;outlineConnect=0;" parent="1" vertex="1">
          <mxGeometry x="80" y="350" width="40" height="80" as="geometry" />
        </mxCell>
        <mxCell id="hd37IQOqFg9SAO2HP4Vp-55" style="edgeStyle=orthogonalEdgeStyle;rounded=0;orthogonalLoop=1;jettySize=auto;html=1;endArrow=none;endFill=0;" parent="1" source="hd37IQOqFg9SAO2HP4Vp-8" edge="1">
          <mxGeometry relative="1" as="geometry">
            <mxPoint x="780" y="550" as="targetPoint" />
          </mxGeometry>
        </mxCell>
        <mxCell id="gZjo6haEc6kRvoVsBA3X-1" style="edgeStyle=orthogonalEdgeStyle;rounded=0;orthogonalLoop=1;jettySize=auto;html=1;entryX=1;entryY=0.5;entryDx=0;entryDy=0;endArrow=none;endFill=0;" edge="1" parent="1" source="hd37IQOqFg9SAO2HP4Vp-8" target="hd37IQOqFg9SAO2HP4Vp-18">
          <mxGeometry relative="1" as="geometry">
            <Array as="points">
              <mxPoint x="560" y="390" />
              <mxPoint x="560" y="150" />
            </Array>
          </mxGeometry>
        </mxCell>
        <mxCell id="hd37IQOqFg9SAO2HP4Vp-8" value="Developer" style="shape=umlActor;verticalLabelPosition=bottom;verticalAlign=top;html=1;outlineConnect=0;" parent="1" vertex="1">
          <mxGeometry x="710" y="350" width="40" height="80" as="geometry" />
        </mxCell>
        <mxCell id="hd37IQOqFg9SAO2HP4Vp-12" value="&lt;font style=&quot;font-size: 15px;&quot;&gt;EZWallet&lt;/font&gt;" style="rounded=0;whiteSpace=wrap;html=1;horizontal=1;verticalAlign=top;fillColor=none;" parent="1" vertex="1">
          <mxGeometry x="200" y="30" width="440" height="650" as="geometry" />
        </mxCell>
        <mxCell id="hd37IQOqFg9SAO2HP4Vp-18" value="Login" style="ellipse;whiteSpace=wrap;html=1;" parent="1" vertex="1">
          <mxGeometry x="240" y="120" width="80" height="60" as="geometry" />
        </mxCell>
        <mxCell id="hd37IQOqFg9SAO2HP4Vp-30" value="include" style="edgeStyle=orthogonalEdgeStyle;rounded=0;orthogonalLoop=1;jettySize=auto;html=1;dashed=1;" parent="1" source="hd37IQOqFg9SAO2HP4Vp-27" target="hd37IQOqFg9SAO2HP4Vp-28" edge="1">
          <mxGeometry relative="1" as="geometry" />
        </mxCell>
        <mxCell id="hd37IQOqFg9SAO2HP4Vp-31" style="edgeStyle=orthogonalEdgeStyle;rounded=0;orthogonalLoop=1;jettySize=auto;html=1;exitX=0.5;exitY=1;exitDx=0;exitDy=0;entryX=0;entryY=0.5;entryDx=0;entryDy=0;dashed=1;" parent="1" source="hd37IQOqFg9SAO2HP4Vp-27" target="hd37IQOqFg9SAO2HP4Vp-29" edge="1">
          <mxGeometry relative="1" as="geometry" />
        </mxCell>
        <mxCell id="hd37IQOqFg9SAO2HP4Vp-32" value="Include" style="edgeLabel;html=1;align=center;verticalAlign=middle;resizable=0;points=[];" parent="hd37IQOqFg9SAO2HP4Vp-31" vertex="1" connectable="0">
          <mxGeometry x="0.1846" y="-1" relative="1" as="geometry">
            <mxPoint as="offset" />
          </mxGeometry>
        </mxCell>
        <mxCell id="hd37IQOqFg9SAO2HP4Vp-27" value="Manage Transaction" style="ellipse;whiteSpace=wrap;html=1;" parent="1" vertex="1">
          <mxGeometry x="240" y="200" width="80" height="60" as="geometry" />
        </mxCell>
        <mxCell id="hd37IQOqFg9SAO2HP4Vp-28" value="Get transaction" style="ellipse;whiteSpace=wrap;html=1;" parent="1" vertex="1">
          <mxGeometry x="420" y="200" width="80" height="60" as="geometry" />
        </mxCell>
        <mxCell id="hd37IQOqFg9SAO2HP4Vp-29" value="Create transaction" style="ellipse;whiteSpace=wrap;html=1;" parent="1" vertex="1">
          <mxGeometry x="420" y="280" width="80" height="60" as="geometry" />
        </mxCell>
        <mxCell id="nKxA4t5GcD8QH2U30N4E-7" value="Include" style="edgeStyle=orthogonalEdgeStyle;rounded=0;orthogonalLoop=1;jettySize=auto;html=1;endArrow=classic;endFill=1;dashed=1;" parent="1" source="hd37IQOqFg9SAO2HP4Vp-45" target="nKxA4t5GcD8QH2U30N4E-4" edge="1">
          <mxGeometry relative="1" as="geometry" />
        </mxCell>
        <mxCell id="nKxA4t5GcD8QH2U30N4E-8" value="Include" style="edgeStyle=orthogonalEdgeStyle;rounded=0;orthogonalLoop=1;jettySize=auto;html=1;exitX=0.5;exitY=1;exitDx=0;exitDy=0;entryX=0;entryY=0.5;entryDx=0;entryDy=0;dashed=1;" parent="1" source="hd37IQOqFg9SAO2HP4Vp-45" target="nKxA4t5GcD8QH2U30N4E-6" edge="1">
          <mxGeometry relative="1" as="geometry" />
        </mxCell>
        <mxCell id="hd37IQOqFg9SAO2HP4Vp-45" value="Manage Categories" style="ellipse;whiteSpace=wrap;html=1;" parent="1" vertex="1">
          <mxGeometry x="240" y="440" width="80" height="60" as="geometry" />
        </mxCell>
        <mxCell id="hd37IQOqFg9SAO2HP4Vp-56" style="edgeStyle=orthogonalEdgeStyle;rounded=0;orthogonalLoop=1;jettySize=auto;html=1;endArrow=none;endFill=0;" parent="1" source="hd37IQOqFg9SAO2HP4Vp-53" edge="1">
          <mxGeometry relative="1" as="geometry">
            <mxPoint x="780" y="550" as="targetPoint" />
          </mxGeometry>
        </mxCell>
        <mxCell id="hd37IQOqFg9SAO2HP4Vp-53" value="API Access" style="ellipse;whiteSpace=wrap;html=1;" parent="1" vertex="1">
          <mxGeometry x="520" y="600" width="80" height="60" as="geometry" />
        </mxCell>
        <mxCell id="nKxA4t5GcD8QH2U30N4E-1" value="Delete transaction" style="ellipse;whiteSpace=wrap;html=1;" parent="1" vertex="1">
          <mxGeometry x="420" y="360" width="80" height="60" as="geometry" />
        </mxCell>
        <mxCell id="nKxA4t5GcD8QH2U30N4E-2" style="edgeStyle=orthogonalEdgeStyle;rounded=0;orthogonalLoop=1;jettySize=auto;html=1;exitX=0.5;exitY=1;exitDx=0;exitDy=0;entryX=0;entryY=0.5;entryDx=0;entryDy=0;dashed=1;" parent="1" source="hd37IQOqFg9SAO2HP4Vp-27" target="nKxA4t5GcD8QH2U30N4E-1" edge="1">
          <mxGeometry relative="1" as="geometry">
            <mxPoint x="290" y="270" as="sourcePoint" />
            <mxPoint x="430" y="320" as="targetPoint" />
            <Array as="points">
              <mxPoint x="280" y="390" />
            </Array>
          </mxGeometry>
        </mxCell>
        <mxCell id="nKxA4t5GcD8QH2U30N4E-3" value="Include" style="edgeLabel;html=1;align=center;verticalAlign=middle;resizable=0;points=[];" parent="nKxA4t5GcD8QH2U30N4E-2" vertex="1" connectable="0">
          <mxGeometry x="0.1846" y="-1" relative="1" as="geometry">
            <mxPoint x="30" y="-1" as="offset" />
          </mxGeometry>
        </mxCell>
        <mxCell id="nKxA4t5GcD8QH2U30N4E-4" value="Create category" style="ellipse;whiteSpace=wrap;html=1;" parent="1" vertex="1">
          <mxGeometry x="420" y="440" width="80" height="60" as="geometry" />
        </mxCell>
        <mxCell id="nKxA4t5GcD8QH2U30N4E-6" value="Get category" style="ellipse;whiteSpace=wrap;html=1;" parent="1" vertex="1">
          <mxGeometry x="420" y="520" width="80" height="60" as="geometry" />
        </mxCell>
        <mxCell id="nKxA4t5GcD8QH2U30N4E-9" value="Get Labels" style="ellipse;whiteSpace=wrap;html=1;" parent="1" vertex="1">
          <mxGeometry x="240" y="600" width="80" height="60" as="geometry" />
        </mxCell>
        <mxCell id="nKxA4t5GcD8QH2U30N4E-11" value="Registration" style="ellipse;whiteSpace=wrap;html=1;" parent="1" vertex="1">
          <mxGeometry x="240" y="50" width="80" height="60" as="geometry" />
        </mxCell>
      </root>
    </mxGraphModel>
  </diagram>
</mxfile>
